<?xml version="1.0" encoding="UTF-8"?>
<svg xmlns="http://www.w3.org/2000/svg" width="100%" height="100%"><!--Generated by dtc.py - Python conversion of dtc by Yves Rűtschlé--><defs><marker id="triangleMarker" markerWidth="8" markerHeight="8" refX="0" refY="4" orient="auto"><path d="M0,0 L0,8 L4,4 L0,0" style="fill: #000000;" /></marker></defs><rect x="10.5" y="6" width="99.0" height="277.5" stroke="black" stroke-width="1" fill="rgb(200,200,200)" /><text x="15.5" y="18" style="font-family: Arial; font-size: 12px;">Sender PC</text><rect x="160.5" y="6" width="99.0" height="277.5" stroke="black" stroke-width="1" fill="rgb(200,200,200)" /><text x="165.5" y="18" style="font-family: Arial; font-size: 12px;">[SEC/FW] Front</text><rect x="310.5" y="6" width="399.0" height="277.5" stroke="black" stroke-width="1" fill="rgb(200,200,200)" /><text x="315.5" y="18" style="font-family: Arial; font-size: 12px;">Mail Server DMZ</text><rect x="760.5" y="6" width="99.0" height="277.5" stroke="black" stroke-width="1" fill="rgb(200,200,200)" /><text x="765.5" y="18" style="font-family: Arial; font-size: 12px;">[SEC/FW] Router</text><rect x="910.5" y="6" width="99.0" height="277.5" stroke="black" stroke-width="1" fill="rgb(200,200,200)" /><text x="915.5" y="18" style="font-family: Arial; font-size: 12px;">Reader laptop</text><rect x="1060.5" y="6" width="99.0" height="277.5" stroke="black" stroke-width="1" fill="rgb(200,200,200)" /><text x="1065.5" y="18" style="font-family: Arial; font-size: 12px;">User</text><rect x="60" y="75" width="600" height="45" stroke="black" stroke-width="1" fill="rgb(213,184,127)" /><text x="360.0" y="103.5" style="font-family: Arial; font-size: 12px; text-anchor: middle">RFCD packets</text><rect x="60" y="30" width="1050" height="45" stroke="black" stroke-width="1" fill="rgb(213,184,127)" /><text x="585.0" y="58.5" style="font-family: Arial; font-size: 12px; text-anchor: middle">Human content</text><rect x="60" y="120" width="300" height="45" stroke="black" stroke-width="1" fill="rgb(213,184,127)" /><text x="210.0" y="148.5" style="font-family: Arial; font-size: 12px; text-anchor: middle">SMTP packets</text><rect x="60" y="165" width="150" height="45" stroke="black" stroke-width="1" fill="rgb(213,184,127)" /><text x="135.0" y="193.5" style="font-family: Arial; font-size: 12px; text-anchor: middle">TCP/IP</text><rect x="60" y="210" width="150" height="45" stroke="black" stroke-width="1" fill="rgb(213,184,127)" /><text x="135.0" y="238.5" style="font-family: Arial; font-size: 12px; text-anchor: middle">Ethernet</text><rect x="210" y="165" width="150" height="45" stroke="black" stroke-width="1" fill="rgb(213,184,127)" /><text x="285.0" y="193.5" style="font-family: Arial; font-size: 12px; text-anchor: middle">TCP/IP</text><rect x="210" y="210" width="150" height="45" stroke="black" stroke-width="1" fill="rgb(213,184,127)" /><text x="285.0" y="238.5" style="font-family: Arial; font-size: 12px; text-anchor: middle">Ethernet</text><rect x="360" y="120" width="150" height="45" stroke="black" stroke-width="1" fill="rgb(213,184,127)" /><text x="435.0" y="148.5" style="font-family: Arial; font-size: 12px; text-anchor: middle">local files</text><rect x="510" y="120" width="150" height="45" stroke="black" stroke-width="1" fill="rgb(213,184,127)" /><text x="585.0" y="148.5" style="font-family: Arial; font-size: 12px; text-anchor: middle">IMAPS packets</text><rect x="510" y="165" width="150" height="45" stroke="black" stroke-width="1" fill="rgb(213,184,127)" /><text x="585.0" y="193.5" style="font-family: Arial; font-size: 12px; text-anchor: middle">TCP/IP</text><rect x="660" y="75" width="300" height="45" stroke="black" stroke-width="1" fill="rgb(213,184,127)" /><text x="810.0" y="103.5" style="font-family: Arial; font-size: 12px; text-anchor: middle">VNC</text><rect x="660" y="120" width="150" height="45" stroke="black" stroke-width="1" fill="rgb(213,184,127)" /><text x="735.0" y="148.5" style="font-family: Arial; font-size: 12px; text-anchor: middle">TCP/IP</text><rect x="660" y="165" width="150" height="45" stroke="black" stroke-width="1" fill="rgb(213,184,127)" /><text x="735.0" y="193.5" style="font-family: Arial; font-size: 12px; text-anchor: middle">Ethernet</text><rect x="810" y="120" width="150" height="45" stroke="black" stroke-width="1" fill="rgb(213,184,127)" /><text x="885.0" y="148.5" style="font-family: Arial; font-size: 12px; text-anchor: middle">TCP/IP</text><line x1="60" y1="30" x2="60" y2="300" stroke="black" stroke-width="4" stroke-linecap="round" style="marker-end: url(#triangleMarker);" /><text x="42" y="305" style="font-family: Arial; font-size: 12px; text-anchor: end;" transform="rotate(-90,60,300)">Email client</text><line x1="210" y1="165" x2="210" y2="300" stroke="black" stroke-width="4" stroke-linecap="round" style="marker-end: url(#triangleMarker);" /><text x="192" y="305" style="font-family: Arial; font-size: 12px; text-anchor: end;" transform="rotate(-90,210,300)">[SEC/FW] Front</text><line x1="360" y1="120" x2="360" y2="300" stroke="black" stroke-width="4" stroke-linecap="round" style="marker-end: url(#triangleMarker);" /><text x="342" y="305" style="font-family: Arial; font-size: 12px; text-anchor: end;" transform="rotate(-90,360,300)">SMTP server</text><line x1="510" y1="120" x2="510" y2="300" stroke="black" stroke-width="4" stroke-linecap="round" style="marker-end: url(#triangleMarker);" /><text x="492" y="305" style="font-family: Arial; font-size: 12px; text-anchor: end;" transform="rotate(-90,510,300)">IMAP server</text><line x1="660" y1="75" x2="660" y2="300" stroke="black" stroke-width="4" stroke-linecap="round" style="marker-end: url(#triangleMarker);" /><text x="642" y="305" style="font-family: Arial; font-size: 12px; text-anchor: end;" transform="rotate(-90,660,300)">Email Client</text><line x1="810" y1="120" x2="810" y2="300" stroke="black" stroke-width="4" stroke-linecap="round" style="marker-end: url(#triangleMarker);" /><text x="792" y="305" style="font-family: Arial; font-size: 12px; text-anchor: end;" transform="rotate(-90,810,300)">[SEC/FW] Router</text><line x1="960" y1="75" x2="960" y2="300" stroke="black" stroke-width="4" stroke-linecap="round" style="marker-end: url(#triangleMarker);" /><text x="942" y="305" style="font-family: Arial; font-size: 12px; text-anchor: end;" transform="rotate(-90,960,300)">VNC Client</text><line x1="1110" y1="30" x2="1110" y2="300" stroke="black" stroke-width="4" stroke-linecap="round" style="marker-end: url(#triangleMarker);" /><text x="1092" y="305" style="font-family: Arial; font-size: 12px; text-anchor: end;" transform="rotate(-90,1110,300)">User</text></svg>