<?xml version="1.0" encoding="UTF-8"?>
<svg xmlns="http://www.w3.org/2000/svg" width="100%" height="100%"><!--Generated by dtc.py - Python conversion of dtc by Yves Rűtschlé--><defs><marker id="triangleMarker" markerWidth="8" markerHeight="8" refX="0" refY="4" orient="auto"><path d="M0,0 L0,8 L4,4 L0,0" style="fill: #000000;" /></marker></defs><rect x="10.5" y="6" width="99.0" height="187.5" stroke="black" stroke-width="1" fill="rgb(200,200,200)" /><text x="15.5" y="18" style="font-family: Arial; font-size: 12px;">Laptop</text><rect x="160.5" y="6" width="549.0" height="187.5" stroke="black" stroke-width="1" fill="rgb(200,200,200)" /><text x="165.5" y="18" style="font-family: Arial; font-size: 12px;">Router</text><rect x="760.5" y="6" width="99.0" height="187.5" stroke="black" stroke-width="1" fill="rgb(200,200,200)" /><text x="765.5" y="18" style="font-family: Arial; font-size: 12px;">Printer</text><rect x="60" y="30" width="300" height="45" stroke="black" stroke-width="1" fill="rgb(213,184,127)" /><text x="210.0" y="58.5" style="font-family: Arial; font-size: 12px; text-anchor: middle">IPP packets</text><rect x="360" y="30" width="150" height="45" stroke="black" stroke-width="1" fill="rgb(213,184,127)" /><text x="435.0" y="58.5" style="font-family: Arial; font-size: 12px; text-anchor: middle">IPP packets</text><rect x="510" y="30" width="300" height="45" stroke="black" stroke-width="1" fill="rgb(213,184,127)" /><text x="660.0" y="58.5" style="font-family: Arial; font-size: 12px; text-anchor: middle">IPP packets</text><rect x="60" y="75" width="150" height="45" stroke="black" stroke-width="1" fill="rgb(213,184,127)" /><text x="135.0" y="103.5" style="font-family: Arial; font-size: 12px; text-anchor: middle">TCP/IP</text><rect x="60" y="120" width="150" height="45" stroke="black" stroke-width="1" fill="rgb(213,184,127)" /><text x="135.0" y="148.5" style="font-family: Arial; font-size: 12px; text-anchor: middle">Ethernet</text><rect x="210" y="75" width="150" height="45" stroke="black" stroke-width="1" fill="rgb(213,184,127)" /><text x="285.0" y="103.5" style="font-family: Arial; font-size: 12px; text-anchor: middle">TCP/IP</text><rect x="360" y="75" width="150" height="45" stroke="black" stroke-width="1" fill="rgb(213,184,127)" /><text x="435.0" y="103.5" style="font-family: Arial; font-size: 12px; text-anchor: middle">TCP/IP</text><rect x="510" y="75" width="150" height="45" stroke="black" stroke-width="1" fill="rgb(213,184,127)" /><text x="585.0" y="103.5" style="font-family: Arial; font-size: 12px; text-anchor: middle">TCP/IP</text><rect x="660" y="75" width="150" height="45" stroke="black" stroke-width="1" fill="rgb(213,184,127)" /><text x="735.0" y="103.5" style="font-family: Arial; font-size: 12px; text-anchor: middle">TCP/IP</text><rect x="660" y="120" width="150" height="45" stroke="black" stroke-width="1" fill="rgb(213,184,127)" /><text x="735.0" y="148.5" style="font-family: Arial; font-size: 12px; text-anchor: middle">Ethernet</text><line x1="60" y1="30" x2="60" y2="210" stroke="black" stroke-width="4" stroke-linecap="round" style="marker-end: url(#triangleMarker);" /><text x="42" y="215" style="font-family: Arial; font-size: 12px; text-anchor: end;" transform="rotate(-90,60,210)">Application</text><line x1="210" y1="75" x2="210" y2="210" stroke="black" stroke-width="4" stroke-linecap="round" style="marker-end: url(#triangleMarker);" /><text x="192" y="215" style="font-family: Arial; font-size: 12px; text-anchor: end;" transform="rotate(-90,210,210)">Netfilter</text><line x1="660" y1="75" x2="660" y2="210" stroke="black" stroke-width="4" stroke-linecap="round" style="marker-end: url(#triangleMarker);" /><text x="642" y="215" style="font-family: Arial; font-size: 12px; text-anchor: end;" transform="rotate(-90,660,210)">Netfilter</text><line x1="360" y1="30" x2="360" y2="210" stroke="black" stroke-width="4" stroke-linecap="round" style="marker-end: url(#triangleMarker);" /><text x="342" y="215" style="font-family: Arial; font-size: 12px; text-anchor: end;" transform="rotate(-90,360,210)">IPP Proxy</text><line x1="510" y1="30" x2="510" y2="210" stroke="black" stroke-width="4" stroke-linecap="round" style="marker-end: url(#triangleMarker);" /><text x="492" y="215" style="font-family: Arial; font-size: 12px; text-anchor: end;" transform="rotate(-90,510,210)">CUPS</text><line x1="810" y1="30" x2="810" y2="210" stroke="black" stroke-width="4" stroke-linecap="round" style="marker-end: url(#triangleMarker);" /><text x="792" y="215" style="font-family: Arial; font-size: 12px; text-anchor: end;" transform="rotate(-90,810,210)">Printer</text></svg>